<svg width="16" height="21" viewBox="0 0 16 21" fill="none" xmlns="http://www.w3.org/2000/svg">
<path d="M15 0H1C0.45 0 0 0.442969 0 0.984375V2.95312C0 3.49453 0.45 3.9375 1 3.9375H15C15.55 3.9375 16 3.49453 16 2.95312V0.984375C16 0.442969 15.55 0 15 0ZM1.33333 19.6875C1.33333 20.4094 1.93333 21 2.66667 21H13.3333C14.0667 21 14.6667 20.4094 14.6667 19.6875V5.25H1.33333V19.6875ZM4 12.1406C4 11.9602 4.15 11.8125 4.33333 11.8125H6.66667V9.51562C6.66667 9.33516 6.81667 9.1875 7 9.1875H9C9.18333 9.1875 9.33333 9.33516 9.33333 9.51562V11.8125H11.6667C11.85 11.8125 12 11.9602 12 12.1406V14.1094C12 14.2898 11.85 14.4375 11.6667 14.4375H9.33333V16.7344C9.33333 16.9148 9.18333 17.0625 9 17.0625H7C6.81667 17.0625 6.66667 16.9148 6.66667 16.7344V14.4375H4.33333C4.15 14.4375 4 14.2898 4 14.1094V12.1406Z" fill="white"/>
</svg>
