<svg width="18" height="21" viewBox="0 0 18 21" fill="none" xmlns="http://www.w3.org/2000/svg">
<path d="M18 20.1797V21H0V20.1797C0 19.9079 0.215879 19.6875 0.482143 19.6875H1.28571V4.92188C1.28571 4.37821 1.71743 3.9375 2.25 3.9375H5.78571V0.984375C5.78571 0.440713 6.21743 0 6.75 0H11.25C11.7826 0 12.2143 0.440713 12.2143 0.984375V3.9375H15.75C16.2826 3.9375 16.7143 4.37821 16.7143 4.92188V19.6875H17.5179C17.7841 19.6875 18 19.9079 18 20.1797ZM12.375 7.875H10.7679C10.5016 7.875 10.2857 8.09538 10.2857 8.36719V10.0078C10.2857 10.2796 10.5016 10.5 10.7679 10.5H12.375C12.6413 10.5 12.8571 10.2796 12.8571 10.0078V8.36719C12.8571 8.09538 12.6413 7.875 12.375 7.875ZM5.625 10.5H7.23214C7.49841 10.5 7.71429 10.2796 7.71429 10.0078V8.36719C7.71429 8.09538 7.49841 7.875 7.23214 7.875H5.625C5.35874 7.875 5.14286 8.09538 5.14286 8.36719V10.0078C5.14286 10.2796 5.35874 10.5 5.625 10.5ZM9.80357 15.75H8.19643C7.93017 15.75 7.71429 15.9704 7.71429 16.2422V19.6875H10.2857V16.2422C10.2857 15.9704 10.0698 15.75 9.80357 15.75ZM12.375 11.8125H10.7679C10.5016 11.8125 10.2857 12.0329 10.2857 12.3047V13.9453C10.2857 14.2171 10.5016 14.4375 10.7679 14.4375H12.375C12.6413 14.4375 12.8571 14.2171 12.8571 13.9453V12.3047C12.8571 12.0329 12.6413 11.8125 12.375 11.8125ZM7.71429 12.3047C7.71429 12.0329 7.49841 11.8125 7.23214 11.8125H5.625C5.35874 11.8125 5.14286 12.0329 5.14286 12.3047V13.9453C5.14286 14.2171 5.35874 14.4375 5.625 14.4375H7.23214C7.49841 14.4375 7.71429 14.2171 7.71429 13.9453V12.3047ZM7.3125 3.9375H8.35714V5.00391C8.35714 5.06917 8.38254 5.13177 8.42775 5.17792C8.47296 5.22407 8.53428 5.25 8.59821 5.25H9.40179C9.46572 5.25 9.52704 5.22407 9.57225 5.17792C9.61746 5.13177 9.64286 5.06917 9.64286 5.00391V3.9375H10.6875C10.7514 3.9375 10.8128 3.91157 10.858 3.86542C10.9032 3.81927 10.9286 3.75667 10.9286 3.69141V2.87109C10.9286 2.80583 10.9032 2.74323 10.858 2.69708C10.8128 2.65093 10.7514 2.625 10.6875 2.625H9.64286V1.55859C9.64286 1.49333 9.61746 1.43073 9.57225 1.38458C9.52704 1.33843 9.46572 1.3125 9.40179 1.3125H8.59821C8.53428 1.3125 8.47296 1.33843 8.42775 1.38458C8.38254 1.43073 8.35714 1.49333 8.35714 1.55859V2.625H7.3125C7.24856 2.625 7.18725 2.65093 7.14204 2.69708C7.09683 2.74323 7.07143 2.80583 7.07143 2.87109V3.69141C7.07143 3.75667 7.09683 3.81927 7.14204 3.86542C7.18725 3.91157 7.24856 3.9375 7.3125 3.9375Z" fill="white"/>
</svg>
