<svg width="34" height="38" viewBox="0 0 34 38" fill="none" xmlns="http://www.w3.org/2000/svg">
<path d="M33.3636 26.8887C31.9405 25.3479 29.2777 23.0301 29.2777 15.4375C29.2777 9.6707 25.2646 5.0543 19.8535 3.92172V2.375C19.8535 1.06355 18.7987 0 17.4979 0C16.197 0 15.1422 1.06355 15.1422 2.375V3.92172C9.73107 5.0543 5.71803 9.6707 5.71803 15.4375C5.71803 23.0301 3.0552 25.3479 1.63207 26.8887C1.19011 27.3674 0.994171 27.9396 0.997854 28.5C1.00596 29.7172 1.95397 30.875 3.36236 30.875H31.6333C33.0417 30.875 33.9905 29.7172 33.9979 28.5C34.0015 27.9396 33.8056 27.3667 33.3636 26.8887ZM5.97216 27.3125C7.53524 25.2366 9.24417 21.7958 9.25227 15.4805C9.25227 15.4657 9.24785 15.4523 9.24785 15.4375C9.24785 10.8463 12.9412 7.125 17.4979 7.125C22.0545 7.125 25.7479 10.8463 25.7479 15.4375C25.7479 15.4523 25.7434 15.4657 25.7434 15.4805C25.7515 21.7966 27.4605 25.2373 29.0235 27.3125H5.97216ZM17.4979 38C20.0996 38 22.2099 35.8736 22.2099 33.25H12.7858C12.7858 35.8736 14.8962 38 17.4979 38Z" fill="#CFCFCF"/>
</svg>
