<svg width="68" height="62" viewBox="0 0 68 62" fill="none" xmlns="http://www.w3.org/2000/svg">
<path d="M66.1094 13.1563C65.0622 10.7316 63.5522 8.53435 61.6641 6.68756C59.7745 4.83526 57.5466 3.36327 55.1016 2.35162C52.5662 1.29844 49.8469 0.759361 47.1016 0.76568C43.25 0.76568 39.4922 1.82037 36.2266 3.81256C35.4453 4.28912 34.7031 4.81256 34 5.38287C33.2969 4.81256 32.5547 4.28912 31.7734 3.81256C28.5078 1.82037 24.75 0.76568 20.8984 0.76568C18.125 0.76568 15.4375 1.29693 12.8984 2.35162C10.4453 3.36724 8.23437 4.82818 6.33594 6.68756C4.44529 8.53226 2.93498 10.73 1.89062 13.1563C0.804688 15.6797 0.25 18.3594 0.25 21.1172C0.25 23.7188 0.78125 26.4297 1.83594 29.1876C2.71875 31.4923 3.98438 33.8829 5.60156 36.2969C8.16406 40.1173 11.6875 44.1016 16.0625 48.1407C23.3125 54.836 30.4922 59.461 30.7969 59.6485L32.6484 60.836C33.4688 61.3595 34.5234 61.3595 35.3438 60.836L37.1953 59.6485C37.5 59.4532 44.6719 54.836 51.9297 48.1407C56.3047 44.1016 59.8281 40.1173 62.3906 36.2969C64.0078 33.8829 65.2812 31.4923 66.1562 29.1876C67.2109 26.4297 67.7422 23.7188 67.7422 21.1172C67.75 18.3594 67.1953 15.6797 66.1094 13.1563Z" fill="black"/>
</svg>
