<svg width="53" height="84" viewBox="0 0 53 84" fill="none" xmlns="http://www.w3.org/2000/svg">
<path d="M34.4507 15.75C38.8398 15.75 42.4007 12.2227 42.4007 7.875C42.4007 3.52734 38.8398 0 34.4507 0C30.0617 0 26.5007 3.52734 26.5007 7.875C26.5007 12.2227 30.0617 15.75 34.4507 15.75ZM50.1023 40.2117L46.2432 38.2758L44.6367 33.4523C42.202 26.1352 35.4114 21.0164 27.7098 21C21.7473 20.9836 18.4514 22.657 12.257 25.1344C8.67949 26.5617 5.74793 29.2687 4.02543 32.7141L2.91574 34.9453C1.62387 37.5375 2.6673 40.6875 5.26762 41.9836C7.85137 43.2797 10.9982 42.2297 12.3067 39.6375L13.4164 37.4062C13.9961 36.2578 14.9567 35.3555 16.1492 34.8797L20.5879 33.1078L18.0704 43.0664C17.2092 46.4789 18.1367 50.1047 20.5382 52.7133L30.4592 63.443C31.6517 64.7391 32.4964 66.2977 32.927 67.9875L35.9579 80.0133C36.6701 82.8187 39.552 84.5414 42.3842 83.8359C45.2164 83.1305 46.9554 80.2758 46.2432 77.4703L42.5664 62.8688C42.1357 61.1789 41.291 59.6039 40.0986 58.3242L32.5626 50.1703L35.4114 38.8992L36.3223 41.6063C37.2001 44.2477 39.0882 46.4297 41.5726 47.6766L45.4317 49.6125C48.0154 50.9086 51.1623 49.8586 52.4707 47.2664C53.746 44.6906 52.7026 41.5078 50.1023 40.2117ZM12.1907 63.2953C11.6607 64.6242 10.8657 65.8219 9.83887 66.8227L1.55762 75.0422C-0.512695 77.093 -0.512695 80.4234 1.55762 82.4742C3.62793 84.525 6.97355 84.525 9.04387 82.4742L18.882 72.7289C19.8923 71.7281 20.6873 70.5305 21.2339 69.2016L23.4698 63.6562C14.3107 53.7633 17.0601 56.7984 15.6192 54.8461L12.1907 63.2953Z" fill="black"/>
</svg>
