<svg width="81" height="81" viewBox="0 0 81 81" fill="none" xmlns="http://www.w3.org/2000/svg">
<path d="M70.875 10.125H66.7649C69.3626 14.599 70.875 19.777 70.875 25.3125C70.875 42.0615 57.249 55.6875 40.5 55.6875C23.751 55.6875 10.125 42.0615 10.125 25.3125C10.125 19.777 11.6374 14.599 14.2351 10.125H10.125C4.54201 10.125 0 14.667 0 20.25V70.875C0 76.458 4.54201 81 10.125 81H70.875C76.458 81 81 76.458 81 70.875V20.25C81 14.667 76.458 10.125 70.875 10.125ZM40.5 50.625C54.4804 50.625 65.8125 39.2929 65.8125 25.3125C65.8125 11.3321 54.4804 0 40.5 0C26.5196 0 15.1875 11.3321 15.1875 25.3125C15.1875 39.2929 26.5196 50.625 40.5 50.625ZM40.4525 26.5876L45.765 14.1908C46.3187 12.8983 47.8121 12.305 49.092 12.8603C50.3766 13.4109 50.9715 14.8996 50.4225 16.1826L45.0958 28.6095C46.1526 29.7422 46.8281 31.2372 46.8281 32.9062C46.8281 36.401 43.9947 39.2344 40.5 39.2344C37.0053 39.2344 34.1719 36.401 34.1719 32.9062C34.1719 29.4289 36.9816 26.6145 40.4525 26.5876Z" fill="black"/>
</svg>
