<svg width="40" height="68" viewBox="0 0 40 68" fill="none" xmlns="http://www.w3.org/2000/svg">
<path d="M20.7102 0.963301C20.6157 0.210801 19.3802 0.210801 19.2892 0.963301C16.1987 25.8378 0.39624 30.9653 0.39624 48.2553C0.39624 58.9408 9.37024 67.5998 19.9997 67.5998C30.6257 67.5998 39.5997 58.9373 39.5997 48.2553C39.5997 30.9653 23.8007 25.8378 20.7102 0.963301ZM17.7247 28.4628C17.5182 29.2293 17.2942 30.0168 17.0632 30.8358C15.6597 35.8198 14.0672 41.4723 14.0672 48.0068C14.0672 51.5488 11.9742 52.8053 10.0212 52.8053C9.48761 52.803 8.95966 52.6956 8.46753 52.4893C7.9754 52.283 7.52873 51.9817 7.15303 51.6028C6.77732 51.2238 6.47993 50.7746 6.27785 50.2807C6.07576 49.7868 5.97294 49.2579 5.97524 48.7243C5.97524 40.9998 9.69224 35.9528 12.9752 31.5043C14.0077 30.1113 14.9772 28.7918 15.7647 27.4793C16.1252 26.8773 17.0947 26.9053 17.5357 27.5003C17.7422 27.7803 17.8122 28.1373 17.7247 28.4628Z" fill="black"/>
</svg>
