<svg width="71" height="71" viewBox="0 0 71 71" fill="none" xmlns="http://www.w3.org/2000/svg">
<path d="M57.6875 0C50.3518 0 44.375 5.97676 44.375 13.3125C44.375 20.6482 50.3518 26.625 57.6875 26.625C65.0232 26.625 71 20.6482 71 13.3125C71 5.97676 65.0232 0 57.6875 0ZM57.6875 17.75C55.233 17.75 53.25 15.767 53.25 13.3125C53.25 10.858 55.233 8.875 57.6875 8.875C60.142 8.875 62.125 10.858 62.125 13.3125C62.125 15.767 60.142 17.75 57.6875 17.75ZM35.5 15.5312C35.5 6.94746 28.5525 0 19.9688 0C11.385 0 4.4375 6.94746 4.4375 15.5312V38.6201C1.70566 42.0453 0 46.3164 0 51.0312C0 62.0557 8.94434 71 19.9688 71C30.9932 71 39.9375 62.0557 39.9375 51.0312C39.9375 46.3164 38.2318 42.0314 35.5 38.6201V15.5312ZM19.9688 62.125C13.8533 62.125 8.875 57.1467 8.875 51.0312C8.875 47.4951 10.5668 44.2502 13.3125 42.184V15.5312C13.3125 11.8564 16.2939 8.875 19.9688 8.875C23.6436 8.875 26.625 11.8564 26.625 15.5312V42.184C29.3707 44.2363 31.0625 47.4951 31.0625 51.0312C31.0625 57.1467 26.0842 62.125 19.9688 62.125ZM22.1875 44.7771V15.5312C22.1875 14.3109 21.1891 13.3125 19.9688 13.3125C18.7484 13.3125 17.75 14.3109 17.75 15.5312V44.7771C15.1707 45.6924 13.3125 48.133 13.3125 51.0312C13.3125 54.7061 16.2939 57.6875 19.9688 57.6875C23.6436 57.6875 26.625 54.7061 26.625 51.0312C26.625 48.133 24.7668 45.6924 22.1875 44.7771Z" fill="black"/>
</svg>
