<svg width="61" height="68" viewBox="0 0 61 68" fill="none" xmlns="http://www.w3.org/2000/svg">
<path d="M40.4447 23.3644L55.851 7.74775L60.2561 12.2188L44.8498 27.8354L40.4341 23.3644H40.4447ZM34.2015 39.3338C32.7395 39.3338 31.3455 38.7472 30.3276 37.6954C29.3097 36.6435 28.7445 35.2389 28.7445 33.7769C28.7445 30.7105 31.1797 28.22 34.1908 28.22C37.2126 28.22 39.6585 30.7105 39.6585 33.7769C39.6585 35.2389 39.0932 36.6435 38.0647 37.6954C37.5621 38.2117 36.9616 38.6225 36.2982 38.9039C35.6348 39.1852 34.922 39.3313 34.2015 39.3338ZM60.322 55.471L55.9168 59.942L40.5106 44.3148L44.9263 39.8544L60.322 55.471ZM34.3693 57.8064C37.3805 57.8064 40.3576 57.2199 43.135 56.0681L50.6617 63.7054C45.6925 66.5187 40.0797 67.9982 34.3693 68C15.8415 68 0.834717 52.7829 0.834717 34C0.834717 15.2171 15.8542 0 34.3693 0C40.2237 0 45.736 1.52787 50.5172 4.20537L43.1243 11.7194C40.3486 10.5702 37.3736 9.97954 34.3693 9.98112C21.3983 9.98112 10.8838 20.6954 10.8838 33.898C10.8838 47.1006 21.3983 57.8042 34.3693 57.8042V57.8064Z" fill="black"/>
</svg>
